<svg width="500" height="408" viewBox="0 0 500 408" fill="none" xmlns="http://www.w3.org/2000/svg">
<rect width="500" height="408" fill="white"/>
<rect x="185" y="224" width="315" height="184" rx="30" fill="url(#paint0_linear_0_1)"/>
<mask id="mask0_0_1" style="mask-type:alpha" maskUnits="userSpaceOnUse" x="185" y="224" width="315" height="184">
<rect x="185" y="224" width="315" height="184" rx="30" fill="#ED713C"/>
</mask>
<g mask="url(#mask0_0_1)">
<ellipse opacity="0.1" cx="209.5" cy="437" rx="160.5" ry="113" fill="black"/>
<ellipse opacity="0.08" cx="475.5" cy="195" rx="160.5" ry="113" fill="black"/>
</g>
<path d="M433.657 373.76L430.451 374.81L430.815 376.112L432.691 375.51V383H434.175V373.76H433.657ZM439.43 381.712L441.054 379.99C441.698 379.304 442.188 378.716 442.51 378.198C442.846 377.68 443.014 377.106 443.014 376.476C443.014 374.852 441.712 373.606 439.948 373.606C438.058 373.606 436.84 375.048 436.84 376.56C436.84 376.84 436.868 377.106 436.938 377.358H438.436C438.394 377.078 438.366 376.84 438.366 376.644C438.366 375.692 438.996 374.964 439.934 374.964C440.872 374.964 441.474 375.65 441.474 376.588C441.474 377.372 441.026 378.044 440.004 379.122L436.714 382.664V383H443.336V381.712H439.43ZM444.652 384.694H446.29L453.612 372.08H451.974L444.652 384.694ZM456.987 381.712L458.611 379.99C459.255 379.304 459.745 378.716 460.067 378.198C460.403 377.68 460.571 377.106 460.571 376.476C460.571 374.852 459.269 373.606 457.505 373.606C455.615 373.606 454.397 375.048 454.397 376.56C454.397 376.84 454.425 377.106 454.495 377.358H455.993C455.951 377.078 455.923 376.84 455.923 376.644C455.923 375.692 456.553 374.964 457.491 374.964C458.429 374.964 459.031 375.65 459.031 376.588C459.031 377.372 458.583 378.044 457.561 379.122L454.271 382.664V383H460.893V381.712H456.987ZM469.755 380.116H468.495V377.274H467.011V380.116H464.253L466.871 373.76H465.345L462.391 380.984V381.39H467.011V383H468.495V381.39H469.755V380.116Z" fill="white"/>
<path opacity="0.9" d="M222.14 380.018C222.14 378.156 220.642 377.134 218.99 377.134C218.57 377.134 218.178 377.176 217.814 377.26V375.09H221.622V373.76H216.358V378.408H218.486C219.844 378.408 220.614 378.996 220.614 380.046C220.614 381.11 219.802 381.796 218.696 381.796C217.702 381.796 217.016 381.278 216.456 380.424L215.42 381.166C216.05 382.356 217.212 383.154 218.738 383.154C220.572 383.154 222.14 381.88 222.14 380.018ZM226.68 381.712L228.304 379.99C228.948 379.304 229.438 378.716 229.76 378.198C230.096 377.68 230.264 377.106 230.264 376.476C230.264 374.852 228.962 373.606 227.198 373.606C225.308 373.606 224.09 375.048 224.09 376.56C224.09 376.84 224.118 377.106 224.188 377.358H225.686C225.644 377.078 225.616 376.84 225.616 376.644C225.616 375.692 226.246 374.964 227.184 374.964C228.122 374.964 228.724 375.65 228.724 376.588C228.724 377.372 228.276 378.044 227.254 379.122L223.964 382.664V383H230.586V381.712H226.68ZM239 376.812C239.042 374.992 237.488 373.578 235.738 373.606C233.974 373.606 232.462 374.992 232.462 376.798C232.462 378.548 233.904 379.892 235.486 379.892C235.64 379.892 235.766 379.878 235.892 379.85L233.666 383H235.43L237.726 379.738C238.048 379.29 238.286 378.94 238.44 378.688C238.594 378.422 238.734 378.142 238.832 377.834C238.944 377.512 239 377.176 239 376.812ZM237.53 376.798C237.53 377.316 237.362 377.75 237.012 378.1C236.662 378.45 236.242 378.632 235.738 378.632C235.22 378.632 234.786 378.464 234.436 378.114C234.086 377.764 233.918 377.316 233.918 376.798C233.918 376.28 234.086 375.846 234.436 375.496C234.786 375.146 235.22 374.964 235.738 374.964C236.242 374.964 236.662 375.146 237.012 375.496C237.362 375.846 237.53 376.28 237.53 376.798ZM247.727 380.116H246.467V377.274H244.983V380.116H242.225L244.843 373.76H243.317L240.363 380.984V381.39H244.983V383H246.467V381.39H247.727V380.116ZM256.256 381.712L257.88 379.99C258.524 379.304 259.014 378.716 259.336 378.198C259.672 377.68 259.84 377.106 259.84 376.476C259.84 374.852 258.538 373.606 256.774 373.606C254.884 373.606 253.666 375.048 253.666 376.56C253.666 376.84 253.694 377.106 253.764 377.358H255.262C255.22 377.078 255.192 376.84 255.192 376.644C255.192 375.692 255.822 374.964 256.76 374.964C257.698 374.964 258.3 375.65 258.3 376.588C258.3 377.372 257.852 378.044 256.83 379.122L253.54 382.664V383H260.162V381.712H256.256ZM269.024 380.116H267.764V377.274H266.28V380.116H263.522L266.14 373.76H264.614L261.66 380.984V381.39H266.28V383H267.764V381.39H269.024V380.116ZM276.686 380.032C276.686 379.234 276.448 378.59 275.972 378.1C275.496 377.61 274.922 377.302 274.236 377.19L276.476 374.166V373.76H270.722V375.118H274.166L272.01 378.016V378.422H273.032C274.39 378.422 275.16 378.996 275.16 380.046C275.16 381.096 274.376 381.796 273.27 381.796C272.318 381.796 271.66 381.278 271.1 380.424L270.064 381.152C270.68 382.342 271.814 383.154 273.312 383.154C275.132 383.154 276.686 381.908 276.686 380.032ZM285.039 379.962C285.039 378.212 283.611 376.868 282.001 376.868C281.847 376.868 281.721 376.882 281.595 376.91L283.821 373.76H282.071L279.761 377.022C279.439 377.484 279.201 377.834 279.047 378.086C278.893 378.338 278.767 378.618 278.655 378.94C278.557 379.248 278.501 379.584 278.501 379.948C278.459 381.768 280.013 383.182 281.763 383.154C283.527 383.154 285.039 381.768 285.039 379.962ZM283.569 379.962C283.569 380.48 283.387 380.928 283.037 381.278C282.687 381.628 282.267 381.796 281.763 381.796C281.245 381.796 280.825 381.628 280.475 381.278C280.125 380.928 279.957 380.48 279.957 379.962C279.957 379.444 280.125 379.01 280.475 378.66C280.825 378.31 281.245 378.128 281.763 378.128C282.267 378.128 282.687 378.31 283.037 378.66C283.387 379.01 283.569 379.444 283.569 379.962ZM298.19 380.116H296.93V377.274H295.446V380.116H292.688L295.306 373.76H293.78L290.826 380.984V381.39H295.446V383H296.93V381.39H298.19V380.116ZM299.166 373.76V375.09H303.506L299.432 383H301.042L305.508 374.166V373.76H299.166ZM313.35 380.592C313.35 379.416 312.566 378.646 311.348 378.198C312.37 377.652 312.916 376.938 312.916 375.972C312.916 375.23 312.636 374.642 312.09 374.236C311.544 373.816 310.844 373.606 310.004 373.606C309.15 373.606 308.45 373.816 307.89 374.236C307.344 374.642 307.064 375.23 307.064 375.972C307.064 376.966 307.624 377.652 308.632 378.198C307.4 378.646 306.63 379.416 306.63 380.592C306.63 382.146 308.016 383.154 310.004 383.154C311.978 383.154 313.35 382.146 313.35 380.592ZM308.478 376.028C308.478 375.286 309.108 374.824 310.004 374.824C310.886 374.824 311.502 375.286 311.502 376.028C311.502 376.714 311.04 377.078 309.99 377.526C308.94 377.064 308.478 376.7 308.478 376.028ZM311.852 380.536C311.852 381.376 311.194 381.922 310.004 381.922C308.814 381.922 308.128 381.376 308.128 380.536C308.128 379.71 308.758 379.276 309.99 378.842C311.222 379.29 311.852 379.696 311.852 380.536ZM315.432 378.296C315.432 381.026 316.594 383.154 318.96 383.154C321.34 383.154 322.474 381.026 322.474 378.296C322.474 376.882 322.18 375.748 321.578 374.894C320.99 374.04 320.122 373.606 318.96 373.606C317.798 373.606 316.93 374.04 316.328 374.908C315.726 375.762 315.432 376.896 315.432 378.296ZM320.934 378.31C320.934 380.494 320.318 381.796 318.96 381.796C317.602 381.796 316.972 380.494 316.972 378.31C316.972 376.084 317.63 374.964 318.96 374.964C320.276 374.964 320.934 376.084 320.934 378.31ZM331.612 381.712L333.236 379.99C333.88 379.304 334.37 378.716 334.692 378.198C335.028 377.68 335.196 377.106 335.196 376.476C335.196 374.852 333.894 373.606 332.13 373.606C330.24 373.606 329.022 375.048 329.022 376.56C329.022 376.84 329.05 377.106 329.12 377.358H330.618C330.576 377.078 330.548 376.84 330.548 376.644C330.548 375.692 331.178 374.964 332.116 374.964C333.054 374.964 333.656 375.65 333.656 376.588C333.656 377.372 333.208 378.044 332.186 379.122L328.896 382.664V383H335.518V381.712H331.612ZM344.38 380.116H343.12V377.274H341.636V380.116H338.878L341.496 373.76H339.97L337.016 380.984V381.39H341.636V383H343.12V381.39H344.38V380.116ZM352.293 379.962C352.293 378.212 350.865 376.868 349.255 376.868C349.101 376.868 348.975 376.882 348.849 376.91L351.075 373.76H349.325L347.015 377.022C346.693 377.484 346.455 377.834 346.301 378.086C346.147 378.338 346.021 378.618 345.909 378.94C345.811 379.248 345.755 379.584 345.755 379.948C345.713 381.768 347.267 383.182 349.017 383.154C350.781 383.154 352.293 381.768 352.293 379.962ZM350.823 379.962C350.823 380.48 350.641 380.928 350.291 381.278C349.941 381.628 349.521 381.796 349.017 381.796C348.499 381.796 348.079 381.628 347.729 381.278C347.379 380.928 347.211 380.48 347.211 379.962C347.211 379.444 347.379 379.01 347.729 378.66C348.079 378.31 348.499 378.128 349.017 378.128C349.521 378.128 349.941 378.31 350.291 378.66C350.641 379.01 350.823 379.444 350.823 379.962ZM360.838 380.592C360.838 379.416 360.054 378.646 358.836 378.198C359.858 377.652 360.404 376.938 360.404 375.972C360.404 375.23 360.124 374.642 359.578 374.236C359.032 373.816 358.332 373.606 357.492 373.606C356.638 373.606 355.938 373.816 355.378 374.236C354.832 374.642 354.552 375.23 354.552 375.972C354.552 376.966 355.112 377.652 356.12 378.198C354.888 378.646 354.118 379.416 354.118 380.592C354.118 382.146 355.504 383.154 357.492 383.154C359.466 383.154 360.838 382.146 360.838 380.592ZM355.966 376.028C355.966 375.286 356.596 374.824 357.492 374.824C358.374 374.824 358.99 375.286 358.99 376.028C358.99 376.714 358.528 377.078 357.478 377.526C356.428 377.064 355.966 376.7 355.966 376.028ZM359.34 380.536C359.34 381.376 358.682 381.922 357.492 381.922C356.302 381.922 355.616 381.376 355.616 380.536C355.616 379.71 356.246 379.276 357.478 378.842C358.71 379.29 359.34 379.696 359.34 380.536Z" fill="white"/>
<path d="M441.416 251.974H453.584V273.837H441.416V251.974Z" fill="#FF5F00"/>
<path d="M433.189 284.841V282.523C433.189 281.635 432.648 281.056 431.721 281.056C431.258 281.056 430.756 281.21 430.408 281.712C430.138 281.287 429.751 281.056 429.172 281.056C428.786 281.056 428.4 281.171 428.09 281.596V281.133H427.279V284.841H428.09V282.794C428.09 282.137 428.438 281.828 428.979 281.828C429.52 281.828 429.79 282.176 429.79 282.794V284.841H430.601V282.794C430.601 282.137 430.987 281.828 431.49 281.828C432.03 281.828 432.301 282.176 432.301 282.794V284.841H433.189ZM445.202 281.133H443.889V280.013H443.078V281.133H442.344V281.867H443.077V283.566C443.077 284.416 443.425 284.918 444.352 284.918C444.7 284.918 445.086 284.802 445.357 284.648L445.125 283.953C444.893 284.107 444.623 284.146 444.429 284.146C444.043 284.146 443.889 283.914 443.889 283.528V281.867H445.202V281.133ZM452.077 281.055C451.614 281.055 451.305 281.287 451.112 281.596V281.133H450.301V284.841H451.112V282.755C451.112 282.137 451.382 281.79 451.884 281.79C452.039 281.79 452.232 281.828 452.386 281.867L452.618 281.094C452.464 281.056 452.232 281.056 452.077 281.056V281.055ZM441.687 281.442C441.301 281.171 440.76 281.056 440.18 281.056C439.254 281.056 438.636 281.519 438.636 282.253C438.636 282.871 439.099 283.219 439.91 283.335L440.296 283.373C440.721 283.45 440.953 283.566 440.953 283.759C440.953 284.03 440.644 284.223 440.103 284.223C439.562 284.223 439.138 284.03 438.867 283.837L438.481 284.455C438.906 284.764 439.485 284.918 440.064 284.918C441.146 284.918 441.764 284.416 441.764 283.721C441.764 283.064 441.262 282.716 440.489 282.601L440.103 282.562C439.756 282.523 439.485 282.446 439.485 282.214C439.485 281.944 439.756 281.79 440.18 281.79C440.644 281.79 441.108 281.983 441.339 282.098L441.687 281.442ZM463.241 281.056C462.777 281.056 462.468 281.287 462.275 281.596V281.133H461.464V284.841H462.275V282.755C462.275 282.137 462.545 281.79 463.047 281.79C463.202 281.79 463.395 281.828 463.549 281.867L463.781 281.094C463.627 281.056 463.395 281.056 463.241 281.056ZM452.889 282.987C452.889 284.107 453.661 284.918 454.859 284.918C455.399 284.918 455.785 284.802 456.172 284.493L455.785 283.837C455.477 284.068 455.168 284.184 454.82 284.184C454.163 284.184 453.7 283.721 453.7 282.987C453.7 282.292 454.163 281.828 454.82 281.79C455.168 281.79 455.477 281.905 455.785 282.137L456.172 281.481C455.785 281.171 455.399 281.056 454.859 281.056C453.661 281.056 452.889 281.867 452.889 282.987ZM460.382 282.987V281.133H459.571V281.596C459.301 281.249 458.914 281.056 458.412 281.056C457.369 281.056 456.558 281.867 456.558 282.987C456.558 284.107 457.369 284.918 458.412 284.918C458.953 284.918 459.339 284.725 459.571 284.377V284.841H460.382V282.987ZM457.408 282.987C457.408 282.33 457.833 281.79 458.528 281.79C459.185 281.79 459.648 282.292 459.648 282.987C459.648 283.644 459.185 284.184 458.528 284.184C457.833 284.146 457.408 283.644 457.408 282.987ZM447.713 281.056C446.631 281.056 445.858 281.828 445.858 282.987C445.858 284.146 446.631 284.918 447.751 284.918C448.292 284.918 448.833 284.764 449.258 284.416L448.871 283.837C448.562 284.068 448.176 284.223 447.79 284.223C447.288 284.223 446.786 283.991 446.67 283.334H449.412V283.026C449.451 281.828 448.756 281.056 447.713 281.056H447.713ZM447.713 281.751C448.215 281.751 448.563 282.06 448.64 282.639H446.708C446.786 282.137 447.133 281.751 447.713 281.751ZM467.837 282.987V279.665H467.026V281.596C466.755 281.249 466.369 281.056 465.867 281.056C464.824 281.056 464.013 281.867 464.013 282.987C464.013 284.107 464.824 284.918 465.867 284.918C466.408 284.918 466.794 284.725 467.026 284.377V284.841H467.837V282.987ZM464.863 282.987C464.863 282.33 465.288 281.79 465.983 281.79C466.64 281.79 467.103 282.292 467.103 282.987C467.103 283.644 466.64 284.184 465.983 284.184C465.288 284.146 464.863 283.644 464.863 282.987ZM437.747 282.987V281.133H436.936V281.596C436.665 281.249 436.279 281.056 435.777 281.056C434.734 281.056 433.923 281.867 433.923 282.987C433.923 284.107 434.734 284.918 435.777 284.918C436.318 284.918 436.704 284.725 436.936 284.377V284.841H437.747V282.987ZM434.734 282.987C434.734 282.33 435.159 281.79 435.854 281.79C436.511 281.79 436.975 282.292 436.975 282.987C436.975 283.644 436.511 284.184 435.854 284.184C435.159 284.146 434.734 283.644 434.734 282.987Z" fill="white"/>
<path d="M442.189 262.906C442.189 258.464 444.275 254.524 447.48 251.974C445.124 250.12 442.15 249 438.906 249C431.219 249 425 255.219 425 262.906C425 270.592 431.219 276.811 438.906 276.811C442.15 276.811 445.124 275.691 447.48 273.837C444.275 271.326 442.189 267.347 442.189 262.906Z" fill="#EB001B"/>
<path d="M470 262.906C470 270.592 463.781 276.811 456.094 276.811C452.849 276.811 449.875 275.691 447.519 273.837C450.764 271.287 452.811 267.347 452.811 262.906C452.811 258.464 450.725 254.524 447.519 251.974C449.875 250.12 452.849 249 456.094 249C463.781 249 470 255.257 470 262.906H470Z" fill="#F79E1B"/>
<path d="M223.848 301.328C226.62 300.908 228.524 299.172 228.524 296.596C228.524 294.356 227.068 292.844 224.352 291.808L222.28 291.024C220.74 290.352 220.04 289.82 220.04 288.728C220.04 287.468 221.188 286.852 222.616 286.852C224.072 286.852 225.108 287.496 226.088 288.924L228.104 287.412C227.124 285.676 225.696 284.64 223.848 284.304V281.028H221.132V284.36C218.752 284.836 217.1 286.488 217.1 288.756C217.1 290.8 218.444 292.368 221.16 293.432L223.092 294.188C224.8 294.944 225.584 295.532 225.584 296.652C225.584 297.996 224.352 298.808 222.644 298.808C220.768 298.808 219.256 297.856 218.052 295.98L216.008 297.492C217.128 299.508 218.892 300.852 221.132 301.272V304.66H223.848V301.328ZM245.271 296.232H242.751V290.548H239.783V296.232H234.267L239.503 283.52H236.451L230.543 297.968V298.78H239.783V302H242.751V298.78H245.271V296.232ZM248.465 306.984H250.845L252.161 299.032H248.745L248.465 306.984ZM268.436 296.036C268.436 292.312 265.44 290.268 262.136 290.268C261.296 290.268 260.512 290.352 259.784 290.52V286.18H267.4V283.52H256.872V292.816H261.128C263.844 292.816 265.384 293.992 265.384 296.092C265.384 298.22 263.76 299.592 261.548 299.592C259.56 299.592 258.188 298.556 257.068 296.848L254.996 298.332C256.256 300.712 258.58 302.308 261.632 302.308C265.3 302.308 268.436 299.76 268.436 296.036ZM270.531 283.52V286.18H279.211L271.063 302H274.283L283.215 284.332V283.52H270.531ZM284.739 292.592C284.739 298.052 287.063 302.308 291.795 302.308C296.555 302.308 298.823 298.052 298.823 292.592C298.823 289.764 298.235 287.496 297.031 285.788C295.855 284.08 294.119 283.212 291.795 283.212C289.471 283.212 287.735 284.08 286.531 285.816C285.327 287.524 284.739 289.792 284.739 292.592ZM295.743 292.62C295.743 296.988 294.511 299.592 291.795 299.592C289.079 299.592 287.819 296.988 287.819 292.62C287.819 288.168 289.135 285.928 291.795 285.928C294.427 285.928 295.743 288.168 295.743 292.62ZM302.414 306.984H304.794L306.11 299.032H302.694L302.414 306.984ZM322.973 297.184C322.973 294.832 321.405 293.292 318.969 292.396C321.013 291.304 322.105 289.876 322.105 287.944C322.105 286.46 321.545 285.284 320.453 284.472C319.361 283.632 317.961 283.212 316.281 283.212C314.573 283.212 313.173 283.632 312.053 284.472C310.961 285.284 310.401 286.46 310.401 287.944C310.401 289.932 311.521 291.304 313.537 292.396C311.073 293.292 309.533 294.832 309.533 297.184C309.533 300.292 312.305 302.308 316.281 302.308C320.229 302.308 322.973 300.292 322.973 297.184ZM313.229 288.056C313.229 286.572 314.489 285.648 316.281 285.648C318.045 285.648 319.277 286.572 319.277 288.056C319.277 289.428 318.353 290.156 316.253 291.052C314.153 290.128 313.229 289.4 313.229 288.056ZM319.977 297.072C319.977 298.752 318.661 299.844 316.281 299.844C313.901 299.844 312.529 298.752 312.529 297.072C312.529 295.42 313.789 294.552 316.253 293.684C318.717 294.58 319.977 295.392 319.977 297.072ZM326.138 292.592C326.138 298.052 328.462 302.308 333.194 302.308C337.954 302.308 340.222 298.052 340.222 292.592C340.222 289.764 339.634 287.496 338.43 285.788C337.254 284.08 335.518 283.212 333.194 283.212C330.87 283.212 329.134 284.08 327.93 285.816C326.726 287.524 326.138 289.792 326.138 292.592ZM337.142 292.62C337.142 296.988 335.91 299.592 333.194 299.592C330.478 299.592 329.218 296.988 329.218 292.62C329.218 288.168 330.534 285.928 333.194 285.928C335.826 285.928 337.142 288.168 337.142 292.62Z" fill="white"/>
<path opacity="0.54" d="M215.602 262.38C215.546 265.026 217.828 267.196 220.46 267.154C222.182 267.154 223.638 266.328 224.422 265.026L223.302 264.2C222.644 265.222 221.692 265.796 220.474 265.796C218.584 265.796 217.142 264.34 217.142 262.38C217.142 260.42 218.584 258.964 220.474 258.964C221.692 258.964 222.644 259.538 223.302 260.56L224.422 259.734C223.624 258.432 222.154 257.606 220.46 257.606C217.828 257.564 215.546 259.734 215.602 262.38ZM226.029 264.116C226.029 265.964 227.317 267.154 229.039 267.154C230.719 267.154 232.021 265.964 232.021 264.116V260.126H230.551V264.228C230.551 265.18 229.893 265.796 229.039 265.796C228.143 265.796 227.485 265.18 227.485 264.228V260.126H226.029V264.116ZM238.018 260.126C237.85 260.084 237.668 260.056 237.458 260.056C236.674 260.056 235.946 260.406 235.456 261.022V260.126H234.084V267H235.554V263.332C235.554 262.114 236.408 261.428 237.57 261.428H238.018V260.126ZM243.268 260.126C243.1 260.084 242.918 260.056 242.708 260.056C241.924 260.056 241.196 260.406 240.706 261.022V260.126H239.334V267H240.804V263.332C240.804 262.114 241.658 261.428 242.82 261.428H243.268V260.126ZM250.635 264.046C250.705 263.724 250.747 263.416 250.747 263.122C250.747 261.33 249.389 259.972 247.569 259.972C245.623 259.93 243.971 261.596 244.013 263.57C244.013 265.6 245.609 267.154 247.709 267.154C248.759 267.154 249.669 266.79 250.453 266.048L249.753 265.04C249.137 265.586 248.465 265.852 247.751 265.852C246.575 265.852 245.693 265.166 245.511 264.046H250.635ZM245.539 262.898C245.763 261.876 246.547 261.218 247.513 261.218C248.479 261.218 249.263 261.848 249.277 262.898H245.539ZM258.437 262.702C258.437 261.064 257.471 259.972 255.861 259.972C255.007 259.972 254.321 260.252 253.803 260.798V260.126H252.431V267H253.901V262.898C253.901 261.96 254.559 261.302 255.469 261.302C256.365 261.302 256.967 261.946 256.967 262.898V267H258.437V262.702ZM264.572 265.754C264.166 265.796 263.872 265.824 263.662 265.824C262.766 265.824 262.304 265.516 262.304 264.634V261.4H264.348V260.126H262.304V258.32H260.82V260.126H259.7V261.4H260.82V264.76C260.82 266.37 261.772 267.154 263.354 267.154C263.704 267.154 264.11 267.098 264.572 267V265.754ZM277.042 264.312C277.042 263.178 276.398 262.31 275.32 261.96C275.824 261.526 276.09 260.938 276.09 260.224C276.09 258.796 274.984 257.76 273.318 257.76H270.084V267H274.046C275.852 267 277.042 265.866 277.042 264.312ZM273.178 259.062C274.088 259.062 274.606 259.524 274.606 260.294C274.606 261.064 274.088 261.554 273.178 261.554H271.54V259.062H273.178ZM275.544 264.27C275.544 265.152 274.942 265.698 273.92 265.698H271.54V262.828H273.92C274.942 262.828 275.544 263.388 275.544 264.27ZM284.1 262.842C284.1 260.994 282.98 259.972 281.286 259.972C280.096 259.972 279.074 260.448 278.388 261.442L279.242 262.31C279.816 261.624 280.376 261.288 281.146 261.288C282.084 261.288 282.616 261.806 282.616 262.758V263.206H280.67C279.116 263.206 278.136 263.976 278.136 265.166C278.136 266.356 279.088 267.154 280.53 267.154C281.468 267.154 282.224 266.832 282.728 266.23V267H284.1V262.842ZM282.616 264.396C282.616 265.334 281.832 266.02 280.838 266.02C280.124 266.02 279.634 265.684 279.634 265.11C279.634 264.55 280.068 264.27 280.852 264.27H282.616V264.396ZM286.146 267H287.616V256.5H286.146V267ZM295.202 262.842C295.202 260.994 294.082 259.972 292.388 259.972C291.198 259.972 290.176 260.448 289.49 261.442L290.344 262.31C290.918 261.624 291.478 261.288 292.248 261.288C293.186 261.288 293.718 261.806 293.718 262.758V263.206H291.772C290.218 263.206 289.238 263.976 289.238 265.166C289.238 266.356 290.19 267.154 291.632 267.154C292.57 267.154 293.326 266.832 293.83 266.23V267H295.202V262.842ZM293.718 264.396C293.718 265.334 292.934 266.02 291.94 266.02C291.226 266.02 290.736 265.684 290.736 265.11C290.736 264.55 291.17 264.27 291.954 264.27H293.718V264.396ZM303.254 262.702C303.254 261.064 302.288 259.972 300.678 259.972C299.824 259.972 299.138 260.252 298.62 260.798V260.126H297.248V267H298.718V262.898C298.718 261.96 299.376 261.302 300.286 261.302C301.182 261.302 301.784 261.946 301.784 262.898V267H303.254V262.702ZM304.866 263.556C304.866 265.558 306.476 267.154 308.506 267.154C309.752 267.154 310.788 266.552 311.404 265.558L310.368 264.76C309.864 265.446 309.248 265.796 308.52 265.796C307.288 265.796 306.364 264.816 306.364 263.556C306.364 262.31 307.288 261.33 308.52 261.33C309.262 261.33 309.878 261.68 310.368 262.38L311.404 261.568C310.802 260.574 309.78 259.972 308.506 259.972C306.532 259.944 304.824 261.582 304.866 263.556ZM319.076 264.046C319.146 263.724 319.188 263.416 319.188 263.122C319.188 261.33 317.83 259.972 316.01 259.972C314.064 259.93 312.412 261.596 312.454 263.57C312.454 265.6 314.05 267.154 316.15 267.154C317.2 267.154 318.11 266.79 318.894 266.048L318.194 265.04C317.578 265.586 316.906 265.852 316.192 265.852C315.016 265.852 314.134 265.166 313.952 264.046H319.076ZM313.98 262.898C314.204 261.876 314.988 261.218 315.954 261.218C316.92 261.218 317.704 261.848 317.718 262.898H313.98Z" fill="white"/>
<rect y="224" width="145" height="184" rx="30" fill="url(#paint1_linear_0_1)"/>
<mask id="mask1_0_1" style="mask-type:alpha" maskUnits="userSpaceOnUse" x="0" y="224" width="145" height="184">
<rect y="224" width="145" height="184" rx="30" fill="#ED713C"/>
</mask>
<g mask="url(#mask1_0_1)">
<circle opacity="0.1" cx="-28" cy="417" r="95" fill="black" stroke="black" stroke-width="36"/>
<path opacity="0.1" d="M278 197.5C278 266.278 232.434 316 183 316C133.566 316 88 266.278 88 197.5C88 128.722 133.566 79 183 79C232.434 79 278 128.722 278 197.5Z" fill="black" stroke="black" stroke-width="36"/>
</g>
<path d="M101.016 369.74L98.4974 370.565L98.7834 371.588L100.257 371.115V377H101.423V369.74H101.016ZM105.16 375.988L106.436 374.635C106.942 374.096 107.327 373.634 107.58 373.227C107.844 372.82 107.976 372.369 107.976 371.874C107.976 370.598 106.953 369.619 105.567 369.619C104.082 369.619 103.125 370.752 103.125 371.94C103.125 372.16 103.147 372.369 103.202 372.567H104.379C104.346 372.347 104.324 372.16 104.324 372.006C104.324 371.258 104.819 370.686 105.556 370.686C106.293 370.686 106.766 371.225 106.766 371.962C106.766 372.578 106.414 373.106 105.611 373.953L103.026 376.736V377H108.229V375.988H105.16ZM108.869 378.331H110.156L115.909 368.42H114.622L108.869 378.331ZM118.168 375.988L119.444 374.635C119.95 374.096 120.335 373.634 120.588 373.227C120.852 372.82 120.984 372.369 120.984 371.874C120.984 370.598 119.961 369.619 118.575 369.619C117.09 369.619 116.133 370.752 116.133 371.94C116.133 372.16 116.155 372.369 116.21 372.567H117.387C117.354 372.347 117.332 372.16 117.332 372.006C117.332 371.258 117.827 370.686 118.564 370.686C119.301 370.686 119.774 371.225 119.774 371.962C119.774 372.578 119.422 373.106 118.619 373.953L116.034 376.736V377H121.237V375.988H118.168ZM127.807 374.734H126.817V372.501H125.651V374.734H123.484L125.541 369.74H124.342L122.021 375.416V375.735H125.651V377H126.817V375.735H127.807V374.734Z" fill="white"/>
<path d="M68.12 338.804L69.628 337.205C70.226 336.568 70.681 336.022 70.98 335.541C71.292 335.06 71.448 334.527 71.448 333.942C71.448 332.434 70.239 331.277 68.601 331.277C66.846 331.277 65.715 332.616 65.715 334.02C65.715 334.28 65.741 334.527 65.806 334.761H67.197C67.158 334.501 67.132 334.28 67.132 334.098C67.132 333.214 67.717 332.538 68.588 332.538C69.459 332.538 70.018 333.175 70.018 334.046C70.018 334.774 69.602 335.398 68.653 336.399L65.598 339.688V340H71.747V338.804H68.12ZM79.5115 337.322H78.3415V334.683H76.9635V337.322H74.4025L76.8335 331.42H75.4165L72.6735 338.128V338.505H76.9635V340H78.3415V338.505H79.5115V337.322ZM86.3953 337.179C86.3953 335.554 85.0693 334.306 83.5743 334.306C83.4313 334.306 83.3143 334.319 83.1973 334.345L85.2643 331.42H83.6393L81.4943 334.449C81.1953 334.878 80.9743 335.203 80.8313 335.437C80.6883 335.671 80.5713 335.931 80.4673 336.23C80.3763 336.516 80.3243 336.828 80.3243 337.166C80.2853 338.856 81.7283 340.169 83.3533 340.143C84.9913 340.143 86.3953 338.856 86.3953 337.179ZM85.0303 337.179C85.0303 337.66 84.8613 338.076 84.5363 338.401C84.2113 338.726 83.8213 338.882 83.3533 338.882C82.8723 338.882 82.4823 338.726 82.1573 338.401C81.8323 338.076 81.6763 337.66 81.6763 337.179C81.6763 336.698 81.8323 336.295 82.1573 335.97C82.4823 335.645 82.8723 335.476 83.3533 335.476C83.8213 335.476 84.2113 335.645 84.5363 335.97C84.8613 336.295 85.0303 336.698 85.0303 337.179ZM93.8659 337.764C93.8659 336.672 93.1379 335.957 92.0069 335.541C92.9559 335.034 93.4629 334.371 93.4629 333.474C93.4629 332.785 93.2029 332.239 92.6959 331.862C92.1889 331.472 91.5389 331.277 90.7589 331.277C89.9659 331.277 89.3159 331.472 88.7959 331.862C88.2889 332.239 88.0289 332.785 88.0289 333.474C88.0289 334.397 88.5489 335.034 89.4849 335.541C88.3409 335.957 87.6259 336.672 87.6259 337.764C87.6259 339.207 88.9129 340.143 90.7589 340.143C92.5919 340.143 93.8659 339.207 93.8659 337.764ZM89.3419 333.526C89.3419 332.837 89.9269 332.408 90.7589 332.408C91.5779 332.408 92.1499 332.837 92.1499 333.526C92.1499 334.163 91.7209 334.501 90.7459 334.917C89.7709 334.488 89.3419 334.15 89.3419 333.526ZM92.4749 337.712C92.4749 338.492 91.8639 338.999 90.7589 338.999C89.6539 338.999 89.0169 338.492 89.0169 337.712C89.0169 336.945 89.6019 336.542 90.7459 336.139C91.8899 336.555 92.4749 336.932 92.4749 337.712Z" fill="white"/>
<circle cx="49" cy="336" r="2" fill="white"/>
<circle cx="29" cy="336" r="2" fill="white"/>
<circle cx="39" cy="336" r="2" fill="white"/>
<circle cx="19" cy="336" r="2" fill="white"/>
<rect x="17" y="361" width="33" height="22" rx="5" fill="url(#paint2_radial_0_1)"/>
<path fill-rule="evenodd" clip-rule="evenodd" d="M33.5 361.219L29.8333 366.968C29.8333 366.968 31.3 371.999 29.8333 376.311L33.5 382.779L37.1666 376.311C37.1666 376.311 35.7 372.718 37.1666 366.968C37.1666 366.968 33.5 361.219 33.5 361.219Z" stroke="#C7C7B6" stroke-width="1.3" stroke-linejoin="bevel"/>
<path d="M17 367.232H29.8333" stroke="#C7C7B6" stroke-width="1.3" stroke-linejoin="bevel"/>
<path d="M36.7996 367.232H49.9996" stroke="#C7C7B6" stroke-width="1.3" stroke-linejoin="bevel"/>
<path d="M17 376.032H29.8333" stroke="#C7C7B6" stroke-width="1.3" stroke-linejoin="bevel"/>
<path d="M36.7996 376.032H49.9996" stroke="#C7C7B6" stroke-width="1.3" stroke-linejoin="bevel"/>
<path opacity="0.5" d="M17.516 315.04C17.468 317.308 19.424 319.168 21.68 319.132C23.156 319.132 24.404 318.424 25.076 317.308L24.116 316.6C23.552 317.476 22.736 317.968 21.692 317.968C20.072 317.968 18.836 316.72 18.836 315.04C18.836 313.36 20.072 312.112 21.692 312.112C22.736 312.112 23.552 312.604 24.116 313.48L25.076 312.772C24.392 311.656 23.132 310.948 21.68 310.948C19.424 310.912 17.468 312.772 17.516 315.04ZM29.8856 313.108C29.7416 313.072 29.5856 313.048 29.4056 313.048C28.7336 313.048 28.1096 313.348 27.6896 313.876V313.108H26.5136V319H27.7736V315.856C27.7736 314.812 28.5056 314.224 29.5016 314.224H29.8856V313.108ZM36.2004 316.468C36.2604 316.192 36.2964 315.928 36.2964 315.676C36.2964 314.14 35.1324 312.976 33.5724 312.976C31.9044 312.94 30.4884 314.368 30.5244 316.06C30.5244 317.8 31.8924 319.132 33.6924 319.132C34.5924 319.132 35.3724 318.82 36.0444 318.184L35.4444 317.32C34.9164 317.788 34.3404 318.016 33.7284 318.016C32.7204 318.016 31.9644 317.428 31.8084 316.468H36.2004ZM31.8324 315.484C32.0244 314.608 32.6964 314.044 33.5244 314.044C34.3524 314.044 35.0244 314.584 35.0364 315.484H31.8324ZM42.2161 310V313.828C41.7721 313.288 41.0641 312.976 40.2481 312.976C38.6161 312.94 37.3321 314.344 37.3681 316.06C37.3681 317.8 38.5921 319.132 40.2481 319.132C41.1241 319.132 41.8801 318.772 42.3121 318.16V319H43.4881V310H42.2161ZM42.2401 316.06C42.2401 317.344 41.3881 317.98 40.4641 317.98C39.4201 317.98 38.6521 317.176 38.6521 316.048C38.6521 314.92 39.4561 314.128 40.4641 314.128C41.3761 314.128 42.2401 314.788 42.2401 316.06ZM45.3104 319H46.5704V313.108H45.3104V319ZM45.0824 310.912C45.0824 311.38 45.4664 311.74 45.9464 311.74C46.4144 311.74 46.7984 311.38 46.7984 310.912C46.7984 310.444 46.4144 310.072 45.9464 310.072C45.4664 310.072 45.0824 310.444 45.0824 310.912ZM51.8965 317.932C51.5485 317.968 51.2965 317.992 51.1165 317.992C50.3485 317.992 49.9525 317.728 49.9525 316.972V314.2H51.7045V313.108H49.9525V311.56H48.6805V313.108H47.7205V314.2H48.6805V317.08C48.6805 318.46 49.4965 319.132 50.8525 319.132C51.1525 319.132 51.5005 319.084 51.8965 319V317.932ZM56.141 315.04C56.093 317.308 58.049 319.168 60.305 319.132C61.781 319.132 63.029 318.424 63.701 317.308L62.741 316.6C62.177 317.476 61.361 317.968 60.317 317.968C58.697 317.968 57.461 316.72 57.461 315.04C57.461 313.36 58.697 312.112 60.317 312.112C61.361 312.112 62.177 312.604 62.741 313.48L63.701 312.772C63.017 311.656 61.757 310.948 60.305 310.948C58.049 310.912 56.093 312.772 56.141 315.04ZM69.76 315.436C69.76 313.852 68.8 312.976 67.348 312.976C66.328 312.976 65.452 313.384 64.864 314.236L65.596 314.98C66.088 314.392 66.568 314.104 67.228 314.104C68.032 314.104 68.488 314.548 68.488 315.364V315.748H66.82C65.488 315.748 64.648 316.408 64.648 317.428C64.648 318.448 65.464 319.132 66.7 319.132C67.504 319.132 68.152 318.856 68.584 318.34V319H69.76V315.436ZM68.488 316.768C68.488 317.572 67.816 318.16 66.964 318.16C66.352 318.16 65.932 317.872 65.932 317.38C65.932 316.9 66.304 316.66 66.976 316.66H68.488V316.768ZM74.8856 313.108C74.7416 313.072 74.5856 313.048 74.4056 313.048C73.7336 313.048 73.1096 313.348 72.6896 313.876V313.108H71.5136V319H72.7736V315.856C72.7736 314.812 73.5056 314.224 74.5016 314.224H74.8856V313.108ZM80.3724 310V313.828C79.9284 313.288 79.2204 312.976 78.4044 312.976C76.7724 312.94 75.4884 314.344 75.5244 316.06C75.5244 317.8 76.7484 319.132 78.4044 319.132C79.2804 319.132 80.0364 318.772 80.4684 318.16V319H81.6444V310H80.3724ZM80.3964 316.06C80.3964 317.344 79.5444 317.98 78.6204 317.98C77.5764 317.98 76.8084 317.176 76.8084 316.048C76.8084 314.92 77.6124 314.128 78.6204 314.128C79.5324 314.128 80.3964 314.788 80.3964 316.06Z" fill="white"/>
<path d="M33.4164 246.974H45.5837V268.837H33.4164V246.974Z" fill="#FF8AA2"/>
<path d="M34.1888 257.906C34.1888 253.464 36.2746 249.524 39.4805 246.974C37.1244 245.12 34.1503 244 30.9057 244C23.2188 244 17 250.219 17 257.906C17 265.592 23.2188 271.811 30.9055 271.811C34.1501 271.811 37.1243 270.691 39.4805 268.837C36.2746 266.326 34.1888 262.347 34.1888 257.906Z" fill="#FD6887"/>
<path d="M61.9995 257.906C61.9995 265.592 55.7808 271.811 48.094 271.811C44.8494 271.811 41.8752 270.691 39.519 268.837C42.7636 266.287 44.8109 262.347 44.8109 257.906C44.8109 253.464 42.7249 249.524 39.519 246.974C41.8751 245.12 44.8494 244 48.094 244C55.7808 244 61.9997 250.257 61.9997 257.906H61.9995Z" fill="#FD6887"/>
<rect x="355" width="145" height="184" rx="30" fill="url(#paint3_linear_0_1)"/>
<mask id="mask2_0_1" style="mask-type:alpha" maskUnits="userSpaceOnUse" x="355" y="0" width="145" height="184">
<rect x="355" width="145" height="184" rx="30" fill="#ED713C"/>
</mask>
<g mask="url(#mask2_0_1)">
<circle opacity="0.1" cx="327" cy="193" r="95" fill="black" stroke="black" stroke-width="36"/>
<path opacity="0.1" d="M633 -26.5C633 42.2781 587.434 92 538 92C488.566 92 443 42.2781 443 -26.5C443 -95.2781 488.566 -145 538 -145C587.434 -145 633 -95.2781 633 -26.5Z" fill="black" stroke="black" stroke-width="36"/>
</g>
<path d="M452.852 149.304C452.852 151.449 453.765 153.121 455.624 153.121C457.494 153.121 458.385 151.449 458.385 149.304C458.385 148.193 458.154 147.302 457.681 146.631C457.219 145.96 456.537 145.619 455.624 145.619C454.711 145.619 454.029 145.96 453.556 146.642C453.083 147.313 452.852 148.204 452.852 149.304ZM457.175 149.315C457.175 151.031 456.691 152.054 455.624 152.054C454.557 152.054 454.062 151.031 454.062 149.315C454.062 147.566 454.579 146.686 455.624 146.686C456.658 146.686 457.175 147.566 457.175 149.315ZM464.688 148.138C464.721 146.708 463.5 145.597 462.125 145.619C460.739 145.619 459.551 146.708 459.551 148.127C459.551 149.502 460.684 150.558 461.927 150.558C462.048 150.558 462.147 150.547 462.246 150.525L460.497 153H461.883L463.687 150.437C463.94 150.085 464.127 149.81 464.248 149.612C464.369 149.403 464.479 149.183 464.556 148.941C464.644 148.688 464.688 148.424 464.688 148.138ZM463.533 148.127C463.533 148.534 463.401 148.875 463.126 149.15C462.851 149.425 462.521 149.568 462.125 149.568C461.718 149.568 461.377 149.436 461.102 149.161C460.827 148.886 460.695 148.534 460.695 148.127C460.695 147.72 460.827 147.379 461.102 147.104C461.377 146.829 461.718 146.686 462.125 146.686C462.521 146.686 462.851 146.829 463.126 147.104C463.401 147.379 463.533 147.72 463.533 148.127ZM463.902 154.331H465.189L470.942 144.42H469.655L463.902 154.331ZM473.201 151.988L474.477 150.635C474.983 150.096 475.368 149.634 475.621 149.227C475.885 148.82 476.017 148.369 476.017 147.874C476.017 146.598 474.994 145.619 473.608 145.619C472.123 145.619 471.166 146.752 471.166 147.94C471.166 148.16 471.188 148.369 471.243 148.567H472.42C472.387 148.347 472.365 148.16 472.365 148.006C472.365 147.258 472.86 146.686 473.597 146.686C474.334 146.686 474.807 147.225 474.807 147.962C474.807 148.578 474.455 149.106 473.652 149.953L471.067 152.736V153H476.27V151.988H473.201ZM482.465 150.657C482.465 149.194 481.288 148.391 479.99 148.391C479.66 148.391 479.352 148.424 479.066 148.49V146.785H482.058V145.74H477.922V149.392H479.594C480.661 149.392 481.266 149.854 481.266 150.679C481.266 151.515 480.628 152.054 479.759 152.054C478.978 152.054 478.439 151.647 477.999 150.976L477.185 151.559C477.68 152.494 478.593 153.121 479.792 153.121C481.233 153.121 482.465 152.12 482.465 150.657Z" fill="white"/>
<path d="M423.289 107.42L420.312 108.395L420.65 109.604L422.392 109.045V116H423.77V107.42H423.289ZM428.185 114.804L429.693 113.205C430.291 112.568 430.746 112.022 431.045 111.541C431.357 111.06 431.513 110.527 431.513 109.942C431.513 108.434 430.304 107.277 428.666 107.277C426.911 107.277 425.78 108.616 425.78 110.02C425.78 110.28 425.806 110.527 425.871 110.761H427.262C427.223 110.501 427.197 110.28 427.197 110.098C427.197 109.214 427.782 108.538 428.653 108.538C429.524 108.538 430.083 109.175 430.083 110.046C430.083 110.774 429.667 111.398 428.718 112.399L425.663 115.688V116H431.812V114.804H428.185ZM439.408 113.764C439.408 112.672 438.68 111.957 437.549 111.541C438.498 111.034 439.005 110.371 439.005 109.474C439.005 108.785 438.745 108.239 438.238 107.862C437.731 107.472 437.081 107.277 436.301 107.277C435.508 107.277 434.858 107.472 434.338 107.862C433.831 108.239 433.571 108.785 433.571 109.474C433.571 110.397 434.091 111.034 435.027 111.541C433.883 111.957 433.168 112.672 433.168 113.764C433.168 115.207 434.455 116.143 436.301 116.143C438.134 116.143 439.408 115.207 439.408 113.764ZM434.884 109.526C434.884 108.837 435.469 108.408 436.301 108.408C437.12 108.408 437.692 108.837 437.692 109.526C437.692 110.163 437.263 110.501 436.288 110.917C435.313 110.488 434.884 110.15 434.884 109.526ZM438.017 113.712C438.017 114.492 437.406 114.999 436.301 114.999C435.196 114.999 434.559 114.492 434.559 113.712C434.559 112.945 435.144 112.542 436.288 112.139C437.432 112.555 438.017 112.932 438.017 113.712ZM446.74 110.254C446.779 108.564 445.336 107.251 443.711 107.277C442.073 107.277 440.669 108.564 440.669 110.241C440.669 111.866 442.008 113.114 443.477 113.114C443.62 113.114 443.737 113.101 443.854 113.075L441.787 116H443.425L445.557 112.971C445.856 112.555 446.077 112.23 446.22 111.996C446.363 111.749 446.493 111.489 446.584 111.203C446.688 110.904 446.74 110.592 446.74 110.254ZM445.375 110.241C445.375 110.722 445.219 111.125 444.894 111.45C444.569 111.775 444.179 111.944 443.711 111.944C443.23 111.944 442.827 111.788 442.502 111.463C442.177 111.138 442.021 110.722 442.021 110.241C442.021 109.76 442.177 109.357 442.502 109.032C442.827 108.707 443.23 108.538 443.711 108.538C444.179 108.538 444.569 108.707 444.894 109.032C445.219 109.357 445.375 109.76 445.375 110.241Z" fill="white"/>
<circle cx="404" cy="112" r="2" fill="white"/>
<circle cx="384" cy="112" r="2" fill="white"/>
<circle cx="394" cy="112" r="2" fill="white"/>
<circle cx="374" cy="112" r="2" fill="white"/>
<rect x="372" y="137" width="33" height="22" rx="5" fill="url(#paint4_radial_0_1)"/>
<path fill-rule="evenodd" clip-rule="evenodd" d="M388.5 137.219L384.833 142.968C384.833 142.968 386.3 147.999 384.833 152.311L388.5 158.779L392.167 152.311C392.167 152.311 390.7 148.718 392.167 142.968C392.167 142.968 388.5 137.219 388.5 137.219Z" stroke="#C7C7B6" stroke-width="1.3" stroke-linejoin="bevel"/>
<path d="M372 143.232H384.833" stroke="#C7C7B6" stroke-width="1.3" stroke-linejoin="bevel"/>
<path d="M391.8 143.232H405" stroke="#C7C7B6" stroke-width="1.3" stroke-linejoin="bevel"/>
<path d="M372 152.032H384.833" stroke="#C7C7B6" stroke-width="1.3" stroke-linejoin="bevel"/>
<path d="M391.8 152.032H405" stroke="#C7C7B6" stroke-width="1.3" stroke-linejoin="bevel"/>
<path opacity="0.5" d="M372.516 91.04C372.468 93.308 374.424 95.168 376.68 95.132C378.156 95.132 379.404 94.424 380.076 93.308L379.116 92.6C378.552 93.476 377.736 93.968 376.692 93.968C375.072 93.968 373.836 92.72 373.836 91.04C373.836 89.36 375.072 88.112 376.692 88.112C377.736 88.112 378.552 88.604 379.116 89.48L380.076 88.772C379.392 87.656 378.132 86.948 376.68 86.948C374.424 86.912 372.468 88.772 372.516 91.04ZM384.886 89.108C384.742 89.072 384.586 89.048 384.406 89.048C383.734 89.048 383.11 89.348 382.69 89.876V89.108H381.514V95H382.774V91.856C382.774 90.812 383.506 90.224 384.502 90.224H384.886V89.108ZM391.2 92.468C391.26 92.192 391.296 91.928 391.296 91.676C391.296 90.14 390.132 88.976 388.572 88.976C386.904 88.94 385.488 90.368 385.524 92.06C385.524 93.8 386.892 95.132 388.692 95.132C389.592 95.132 390.372 94.82 391.044 94.184L390.444 93.32C389.916 93.788 389.34 94.016 388.728 94.016C387.72 94.016 386.964 93.428 386.808 92.468H391.2ZM386.832 91.484C387.024 90.608 387.696 90.044 388.524 90.044C389.352 90.044 390.024 90.584 390.036 91.484H386.832ZM397.216 86V89.828C396.772 89.288 396.064 88.976 395.248 88.976C393.616 88.94 392.332 90.344 392.368 92.06C392.368 93.8 393.592 95.132 395.248 95.132C396.124 95.132 396.88 94.772 397.312 94.16V95H398.488V86H397.216ZM397.24 92.06C397.24 93.344 396.388 93.98 395.464 93.98C394.42 93.98 393.652 93.176 393.652 92.048C393.652 90.92 394.456 90.128 395.464 90.128C396.376 90.128 397.24 90.788 397.24 92.06ZM400.31 95H401.57V89.108H400.31V95ZM400.082 86.912C400.082 87.38 400.466 87.74 400.946 87.74C401.414 87.74 401.798 87.38 401.798 86.912C401.798 86.444 401.414 86.072 400.946 86.072C400.466 86.072 400.082 86.444 400.082 86.912ZM406.896 93.932C406.548 93.968 406.296 93.992 406.116 93.992C405.348 93.992 404.952 93.728 404.952 92.972V90.2H406.704V89.108H404.952V87.56H403.68V89.108H402.72V90.2H403.68V93.08C403.68 94.46 404.496 95.132 405.852 95.132C406.152 95.132 406.5 95.084 406.896 95V93.932ZM411.141 91.04C411.093 93.308 413.049 95.168 415.305 95.132C416.781 95.132 418.029 94.424 418.701 93.308L417.741 92.6C417.177 93.476 416.361 93.968 415.317 93.968C413.697 93.968 412.461 92.72 412.461 91.04C412.461 89.36 413.697 88.112 415.317 88.112C416.361 88.112 417.177 88.604 417.741 89.48L418.701 88.772C418.017 87.656 416.757 86.948 415.305 86.948C413.049 86.912 411.093 88.772 411.141 91.04ZM424.76 91.436C424.76 89.852 423.8 88.976 422.348 88.976C421.328 88.976 420.452 89.384 419.864 90.236L420.596 90.98C421.088 90.392 421.568 90.104 422.228 90.104C423.032 90.104 423.488 90.548 423.488 91.364V91.748H421.82C420.488 91.748 419.648 92.408 419.648 93.428C419.648 94.448 420.464 95.132 421.7 95.132C422.504 95.132 423.152 94.856 423.584 94.34V95H424.76V91.436ZM423.488 92.768C423.488 93.572 422.816 94.16 421.964 94.16C421.352 94.16 420.932 93.872 420.932 93.38C420.932 92.9 421.304 92.66 421.976 92.66H423.488V92.768ZM429.886 89.108C429.742 89.072 429.586 89.048 429.406 89.048C428.734 89.048 428.11 89.348 427.69 89.876V89.108H426.514V95H427.774V91.856C427.774 90.812 428.506 90.224 429.502 90.224H429.886V89.108ZM435.372 86V89.828C434.928 89.288 434.22 88.976 433.404 88.976C431.772 88.94 430.488 90.344 430.524 92.06C430.524 93.8 431.748 95.132 433.404 95.132C434.28 95.132 435.036 94.772 435.468 94.16V95H436.644V86H435.372ZM435.396 92.06C435.396 93.344 434.544 93.98 433.62 93.98C432.576 93.98 431.808 93.176 431.808 92.048C431.808 90.92 432.612 90.128 433.62 90.128C434.532 90.128 435.396 90.788 435.396 92.06Z" fill="white"/>
<path d="M388.416 22.9742H400.584V44.8367H388.416V22.9742Z" fill="#B27BFF"/>
<path d="M389.189 33.9055C389.189 29.4635 391.275 25.5236 394.48 22.9742C392.124 21.1201 389.15 20 385.906 20C378.219 20 372 26.2188 372 33.9055C372 41.5921 378.219 47.811 385.906 47.811C389.15 47.811 392.124 46.6909 394.48 44.8367C391.275 42.326 389.189 38.3475 389.189 33.9055Z" fill="#9E59FF"/>
<path d="M417 33.9055C417 41.5921 410.781 47.811 403.094 47.811C399.849 47.811 396.875 46.6909 394.519 44.8367C397.764 42.2874 399.811 38.3475 399.811 33.9055C399.811 29.4635 397.725 25.5236 394.519 22.9742C396.875 21.1201 399.849 20 403.094 20C410.781 20 417 26.2575 417 33.9055H417Z" fill="#9E59FF"/>
<rect width="315" height="184" rx="30" fill="url(#paint5_linear_0_1)"/>
<mask id="mask3_0_1" style="mask-type:alpha" maskUnits="userSpaceOnUse" x="0" y="0" width="315" height="184">
<rect width="315" height="184" rx="30" fill="#ED713C"/>
</mask>
<g mask="url(#mask3_0_1)">
<ellipse opacity="0.1" cx="24.5" cy="213" rx="160.5" ry="113" fill="black"/>
<ellipse opacity="0.08" cx="290.5" cy="-29" rx="160.5" ry="113" fill="black"/>
</g>
<path d="M244.629 154.296C244.629 157.026 245.791 159.154 248.157 159.154C250.537 159.154 251.671 157.026 251.671 154.296C251.671 152.882 251.377 151.748 250.775 150.894C250.187 150.04 249.319 149.606 248.157 149.606C246.995 149.606 246.127 150.04 245.525 150.908C244.923 151.762 244.629 152.896 244.629 154.296ZM250.131 154.31C250.131 156.494 249.515 157.796 248.157 157.796C246.799 157.796 246.169 156.494 246.169 154.31C246.169 152.084 246.827 150.964 248.157 150.964C249.473 150.964 250.131 152.084 250.131 154.31ZM260.193 152.812C260.235 150.992 258.681 149.578 256.931 149.606C255.167 149.606 253.655 150.992 253.655 152.798C253.655 154.548 255.097 155.892 256.679 155.892C256.833 155.892 256.959 155.878 257.085 155.85L254.859 159H256.623L258.919 155.738C259.241 155.29 259.479 154.94 259.633 154.688C259.787 154.422 259.927 154.142 260.025 153.834C260.137 153.512 260.193 153.176 260.193 152.812ZM258.723 152.798C258.723 153.316 258.555 153.75 258.205 154.1C257.855 154.45 257.435 154.632 256.931 154.632C256.413 154.632 255.979 154.464 255.629 154.114C255.279 153.764 255.111 153.316 255.111 152.798C255.111 152.28 255.279 151.846 255.629 151.496C255.979 151.146 256.413 150.964 256.931 150.964C257.435 150.964 257.855 151.146 258.205 151.496C258.555 151.846 258.723 152.28 258.723 152.798ZM259.693 160.694H261.331L268.653 148.08H267.015L259.693 160.694ZM272.028 157.712L273.652 155.99C274.296 155.304 274.786 154.716 275.108 154.198C275.444 153.68 275.612 153.106 275.612 152.476C275.612 150.852 274.31 149.606 272.546 149.606C270.656 149.606 269.438 151.048 269.438 152.56C269.438 152.84 269.466 153.106 269.536 153.358H271.034C270.992 153.078 270.964 152.84 270.964 152.644C270.964 151.692 271.594 150.964 272.532 150.964C273.47 150.964 274.072 151.65 274.072 152.588C274.072 153.372 273.624 154.044 272.602 155.122L269.312 158.664V159H275.934V157.712H272.028ZM284.32 156.018C284.32 154.156 282.822 153.134 281.17 153.134C280.75 153.134 280.358 153.176 279.994 153.26V151.09H283.802V149.76H278.538V154.408H280.666C282.024 154.408 282.794 154.996 282.794 156.046C282.794 157.11 281.982 157.796 280.876 157.796C279.882 157.796 279.196 157.278 278.636 156.424L277.6 157.166C278.23 158.356 279.392 159.154 280.918 159.154C282.752 159.154 284.32 157.88 284.32 156.018Z" fill="white"/>
<path opacity="0.9" d="M37.14 156.018C37.14 154.156 35.642 153.134 33.99 153.134C33.57 153.134 33.178 153.176 32.814 153.26V151.09H36.622V149.76H31.358V154.408H33.486C34.844 154.408 35.614 154.996 35.614 156.046C35.614 157.11 34.802 157.796 33.696 157.796C32.702 157.796 32.016 157.278 31.456 156.424L30.42 157.166C31.05 158.356 32.212 159.154 33.738 159.154C35.572 159.154 37.14 157.88 37.14 156.018ZM41.6803 157.712L43.3043 155.99C43.9483 155.304 44.4383 154.716 44.7603 154.198C45.0963 153.68 45.2643 153.106 45.2643 152.476C45.2643 150.852 43.9623 149.606 42.1983 149.606C40.3083 149.606 39.0903 151.048 39.0903 152.56C39.0903 152.84 39.1183 153.106 39.1883 153.358H40.6863C40.6443 153.078 40.6163 152.84 40.6163 152.644C40.6163 151.692 41.2463 150.964 42.1843 150.964C43.1223 150.964 43.7243 151.65 43.7243 152.588C43.7243 153.372 43.2763 154.044 42.2543 155.122L38.9643 158.664V159H45.5863V157.712H41.6803ZM54.266 156.592C54.266 155.416 53.482 154.646 52.264 154.198C53.286 153.652 53.832 152.938 53.832 151.972C53.832 151.23 53.552 150.642 53.006 150.236C52.46 149.816 51.76 149.606 50.92 149.606C50.066 149.606 49.366 149.816 48.806 150.236C48.26 150.642 47.98 151.23 47.98 151.972C47.98 152.966 48.54 153.652 49.548 154.198C48.316 154.646 47.546 155.416 47.546 156.592C47.546 158.146 48.932 159.154 50.92 159.154C52.894 159.154 54.266 158.146 54.266 156.592ZM49.394 152.028C49.394 151.286 50.024 150.824 50.92 150.824C51.802 150.824 52.418 151.286 52.418 152.028C52.418 152.714 51.956 153.078 50.906 153.526C49.856 153.064 49.394 152.7 49.394 152.028ZM52.768 156.536C52.768 157.376 52.11 157.922 50.92 157.922C49.73 157.922 49.044 157.376 49.044 156.536C49.044 155.71 49.674 155.276 50.906 154.842C52.138 155.29 52.768 155.696 52.768 156.536ZM58.8541 157.712L60.4781 155.99C61.1221 155.304 61.6121 154.716 61.9341 154.198C62.2701 153.68 62.4381 153.106 62.4381 152.476C62.4381 150.852 61.1361 149.606 59.3721 149.606C57.4821 149.606 56.2641 151.048 56.2641 152.56C56.2641 152.84 56.2921 153.106 56.3621 153.358H57.8601C57.8181 153.078 57.7901 152.84 57.7901 152.644C57.7901 151.692 58.4201 150.964 59.3581 150.964C60.2961 150.964 60.8981 151.65 60.8981 152.588C60.8981 153.372 60.4501 154.044 59.4281 155.122L56.1381 158.664V159H62.7601V157.712H58.8541ZM75.3457 156.032C75.3457 155.234 75.1077 154.59 74.6317 154.1C74.1557 153.61 73.5817 153.302 72.8957 153.19L75.1357 150.166V149.76H69.3817V151.118H72.8257L70.6697 154.016V154.422H71.6917C73.0497 154.422 73.8197 154.996 73.8197 156.046C73.8197 157.096 73.0357 157.796 71.9297 157.796C70.9777 157.796 70.3197 157.278 69.7597 156.424L68.7237 157.152C69.3397 158.342 70.4737 159.154 71.9717 159.154C73.7917 159.154 75.3457 157.908 75.3457 156.032ZM84.1473 156.116H82.8873V153.274H81.4033V156.116H78.6453L81.2633 149.76H79.7373L76.7833 156.984V157.39H81.4033V159H82.8873V157.39H84.1473V156.116ZM92.0326 156.018C92.0326 154.156 90.5346 153.134 88.8826 153.134C88.4626 153.134 88.0706 153.176 87.7066 153.26V151.09H91.5146V149.76H86.2506V154.408H88.3786C89.7366 154.408 90.5066 154.996 90.5066 156.046C90.5066 157.11 89.6946 157.796 88.5886 157.796C87.5946 157.796 86.9086 157.278 86.3486 156.424L85.3126 157.166C85.9426 158.356 87.1046 159.154 88.6306 159.154C90.4646 159.154 92.0326 157.88 92.0326 156.018ZM100.381 155.962C100.381 154.212 98.9529 152.868 97.3429 152.868C97.1889 152.868 97.0629 152.882 96.9369 152.91L99.1629 149.76H97.4129L95.1029 153.022C94.7809 153.484 94.5429 153.834 94.3889 154.086C94.2349 154.338 94.1089 154.618 93.9969 154.94C93.8989 155.248 93.8429 155.584 93.8429 155.948C93.8009 157.768 95.3549 159.182 97.1049 159.154C98.8689 159.154 100.381 157.768 100.381 155.962ZM98.9109 155.962C98.9109 156.48 98.7289 156.928 98.3789 157.278C98.0289 157.628 97.6089 157.796 97.1049 157.796C96.5869 157.796 96.1669 157.628 95.8169 157.278C95.4669 156.928 95.2989 156.48 95.2989 155.962C95.2989 155.444 95.4669 155.01 95.8169 154.66C96.1669 154.31 96.5869 154.128 97.1049 154.128C97.6089 154.128 98.0289 154.31 98.3789 154.66C98.7289 155.01 98.9109 155.444 98.9109 155.962ZM106.42 149.76V151.09H110.76L106.686 159H108.296L112.762 150.166V149.76H106.42ZM120.604 156.592C120.604 155.416 119.82 154.646 118.602 154.198C119.624 153.652 120.17 152.938 120.17 151.972C120.17 151.23 119.89 150.642 119.344 150.236C118.798 149.816 118.098 149.606 117.258 149.606C116.404 149.606 115.704 149.816 115.144 150.236C114.598 150.642 114.318 151.23 114.318 151.972C114.318 152.966 114.878 153.652 115.886 154.198C114.654 154.646 113.884 155.416 113.884 156.592C113.884 158.146 115.27 159.154 117.258 159.154C119.232 159.154 120.604 158.146 120.604 156.592ZM115.732 152.028C115.732 151.286 116.362 150.824 117.258 150.824C118.14 150.824 118.756 151.286 118.756 152.028C118.756 152.714 118.294 153.078 117.244 153.526C116.194 153.064 115.732 152.7 115.732 152.028ZM119.106 156.536C119.106 157.376 118.448 157.922 117.258 157.922C116.068 157.922 115.382 157.376 115.382 156.536C115.382 155.71 116.012 155.276 117.244 154.842C118.476 155.29 119.106 155.696 119.106 156.536ZM129 152.812C129.042 150.992 127.488 149.578 125.738 149.606C123.974 149.606 122.462 150.992 122.462 152.798C122.462 154.548 123.904 155.892 125.486 155.892C125.64 155.892 125.766 155.878 125.892 155.85L123.666 159H125.43L127.726 155.738C128.048 155.29 128.286 154.94 128.44 154.688C128.594 154.422 128.734 154.142 128.832 153.834C128.944 153.512 129 153.176 129 152.812ZM127.53 152.798C127.53 153.316 127.362 153.75 127.012 154.1C126.662 154.45 126.242 154.632 125.738 154.632C125.22 154.632 124.786 154.464 124.436 154.114C124.086 153.764 123.918 153.316 123.918 152.798C123.918 152.28 124.086 151.846 124.436 151.496C124.786 151.146 125.22 150.964 125.738 150.964C126.242 150.964 126.662 151.146 127.012 151.496C127.362 151.846 127.53 152.28 127.53 152.798ZM130.965 154.296C130.965 157.026 132.127 159.154 134.493 159.154C136.873 159.154 138.007 157.026 138.007 154.296C138.007 152.882 137.713 151.748 137.111 150.894C136.523 150.04 135.655 149.606 134.493 149.606C133.331 149.606 132.463 150.04 131.861 150.908C131.259 151.762 130.965 152.896 130.965 154.296ZM136.467 154.31C136.467 156.494 135.851 157.796 134.493 157.796C133.135 157.796 132.505 156.494 132.505 154.31C132.505 152.084 133.163 150.964 134.493 150.964C135.809 150.964 136.467 152.084 136.467 154.31ZM147.327 149.76L144.121 150.81L144.485 152.112L146.361 151.51V159H147.845V149.76H147.327ZM153.1 157.712L154.724 155.99C155.368 155.304 155.858 154.716 156.18 154.198C156.516 153.68 156.684 153.106 156.684 152.476C156.684 150.852 155.382 149.606 153.618 149.606C151.728 149.606 150.51 151.048 150.51 152.56C150.51 152.84 150.538 153.106 150.608 153.358H152.106C152.064 153.078 152.036 152.84 152.036 152.644C152.036 151.692 152.666 150.964 153.604 150.964C154.542 150.964 155.144 151.65 155.144 152.588C155.144 153.372 154.696 154.044 153.674 155.122L150.384 158.664V159H157.006V157.712H153.1ZM165.686 156.592C165.686 155.416 164.902 154.646 163.684 154.198C164.706 153.652 165.252 152.938 165.252 151.972C165.252 151.23 164.972 150.642 164.426 150.236C163.88 149.816 163.18 149.606 162.34 149.606C161.486 149.606 160.786 149.816 160.226 150.236C159.68 150.642 159.4 151.23 159.4 151.972C159.4 152.966 159.96 153.652 160.968 154.198C159.736 154.646 158.966 155.416 158.966 156.592C158.966 158.146 160.352 159.154 162.34 159.154C164.314 159.154 165.686 158.146 165.686 156.592ZM160.814 152.028C160.814 151.286 161.444 150.824 162.34 150.824C163.222 150.824 163.838 151.286 163.838 152.028C163.838 152.714 163.376 153.078 162.326 153.526C161.276 153.064 160.814 152.7 160.814 152.028ZM164.188 156.536C164.188 157.376 163.53 157.922 162.34 157.922C161.15 157.922 160.464 157.376 160.464 156.536C160.464 155.71 161.094 155.276 162.326 154.842C163.558 155.29 164.188 155.696 164.188 156.536ZM174.082 152.812C174.124 150.992 172.57 149.578 170.82 149.606C169.056 149.606 167.544 150.992 167.544 152.798C167.544 154.548 168.986 155.892 170.568 155.892C170.722 155.892 170.848 155.878 170.974 155.85L168.748 159H170.512L172.808 155.738C173.13 155.29 173.368 154.94 173.522 154.688C173.676 154.422 173.816 154.142 173.914 153.834C174.026 153.512 174.082 153.176 174.082 152.812ZM172.612 152.798C172.612 153.316 172.444 153.75 172.094 154.1C171.744 154.45 171.324 154.632 170.82 154.632C170.302 154.632 169.868 154.464 169.518 154.114C169.168 153.764 169 153.316 169 152.798C169 152.28 169.168 151.846 169.518 151.496C169.868 151.146 170.302 150.964 170.82 150.964C171.324 150.964 171.744 151.146 172.094 151.496C172.444 151.846 172.612 152.28 172.612 152.798Z" fill="white"/>
<path d="M256.416 27.9742H268.584V49.8367H256.416V27.9742Z" fill="#FF5F00"/>
<path d="M248.189 60.8409V58.5234C248.189 57.6348 247.648 57.0556 246.721 57.0556C246.258 57.0556 245.756 57.2101 245.408 57.7123C245.138 57.2873 244.751 57.0556 244.172 57.0556C243.786 57.0556 243.4 57.1714 243.09 57.5963V57.1328H242.279V60.8409H243.09V58.7937C243.09 58.1372 243.438 57.828 243.979 57.828C244.52 57.828 244.79 58.1757 244.79 58.7937V60.8409H245.601V58.7937C245.601 58.1372 245.987 57.828 246.49 57.828C247.03 57.828 247.301 58.1757 247.301 58.7937V60.8409H248.189ZM260.202 57.1328H258.889V56.0127H258.078V57.1328H257.344V57.8666H258.077V59.5663C258.077 60.4162 258.425 60.9182 259.352 60.9182C259.7 60.9182 260.086 60.8024 260.357 60.6479L260.125 59.9525C259.893 60.107 259.623 60.1457 259.429 60.1457C259.043 60.1457 258.889 59.914 258.889 59.5276V57.8666H260.202V57.1328ZM267.077 57.0554C266.614 57.0554 266.305 57.2873 266.112 57.5963V57.1328H265.301V60.8409H266.112V58.7551C266.112 58.1372 266.382 57.7895 266.884 57.7895C267.039 57.7895 267.232 57.8282 267.386 57.8668L267.618 57.0943C267.464 57.0556 267.232 57.0556 267.077 57.0556V57.0554ZM256.687 57.4418C256.301 57.1714 255.76 57.0556 255.18 57.0556C254.254 57.0556 253.636 57.5191 253.636 58.253C253.636 58.8711 254.099 59.2186 254.91 59.3346L255.296 59.3733C255.721 59.4503 255.953 59.5663 255.953 59.7595C255.953 60.0298 255.644 60.223 255.103 60.223C254.562 60.223 254.138 60.0298 253.867 59.8367L253.481 60.4547C253.906 60.7637 254.485 60.9182 255.064 60.9182C256.146 60.9182 256.764 60.4162 256.764 59.7208C256.764 59.0641 256.262 58.7164 255.489 58.6007L255.103 58.562C254.756 58.5232 254.485 58.4462 254.485 58.2144C254.485 57.944 254.756 57.7895 255.18 57.7895C255.644 57.7895 256.108 57.9825 256.339 58.0985L256.687 57.4418ZM278.241 57.0556C277.777 57.0556 277.468 57.2873 277.275 57.5963V57.1328H276.464V60.8409H277.275V58.7551C277.275 58.1372 277.545 57.7895 278.047 57.7895C278.202 57.7895 278.395 57.8282 278.549 57.8668L278.781 57.0943C278.627 57.0556 278.395 57.0556 278.241 57.0556ZM267.889 58.9869C267.889 60.107 268.661 60.9182 269.859 60.9182C270.399 60.9182 270.785 60.8024 271.172 60.4934L270.785 59.8367C270.477 60.0685 270.168 60.1843 269.82 60.1843C269.163 60.1843 268.7 59.7208 268.7 58.9869C268.7 58.2917 269.163 57.828 269.82 57.7895C270.168 57.7895 270.477 57.9053 270.785 58.1372L271.172 57.4805C270.785 57.1714 270.399 57.0556 269.859 57.0556C268.661 57.0556 267.889 57.8668 267.889 58.9869ZM275.382 58.9869V57.1328H274.571V57.5963C274.301 57.2488 273.914 57.0556 273.412 57.0556C272.369 57.0556 271.558 57.8668 271.558 58.9869C271.558 60.107 272.369 60.9182 273.412 60.9182C273.953 60.9182 274.339 60.7251 274.571 60.3774V60.8409H275.382V58.9869ZM272.408 58.9869C272.408 58.3302 272.833 57.7895 273.528 57.7895C274.185 57.7895 274.648 58.2917 274.648 58.9869C274.648 59.6435 274.185 60.1843 273.528 60.1843C272.833 60.1455 272.408 59.6435 272.408 58.9869ZM262.713 57.0556C261.631 57.0556 260.858 57.828 260.858 58.9869C260.858 60.1457 261.631 60.9182 262.751 60.9182C263.292 60.9182 263.833 60.7637 264.258 60.4162L263.871 59.8367C263.562 60.0685 263.176 60.223 262.79 60.223C262.288 60.223 261.786 59.9912 261.67 59.3344H264.412V59.0256C264.451 57.828 263.756 57.0556 262.713 57.0556H262.713ZM262.713 57.7508C263.215 57.7508 263.563 58.06 263.64 58.6394H261.708C261.786 58.1372 262.133 57.7508 262.713 57.7508ZM282.837 58.9869V55.665H282.026V57.5963C281.755 57.2488 281.369 57.0556 280.867 57.0556C279.824 57.0556 279.013 57.8668 279.013 58.9869C279.013 60.107 279.824 60.9182 280.867 60.9182C281.408 60.9182 281.794 60.7251 282.026 60.3774V60.8409H282.837V58.9869ZM279.863 58.9869C279.863 58.3302 280.288 57.7895 280.983 57.7895C281.64 57.7895 282.103 58.2917 282.103 58.9869C282.103 59.6435 281.64 60.1843 280.983 60.1843C280.288 60.1455 279.863 59.6435 279.863 58.9869ZM252.747 58.9869V57.1328H251.936V57.5963C251.665 57.2488 251.279 57.0556 250.777 57.0556C249.734 57.0556 248.923 57.8668 248.923 58.9869C248.923 60.107 249.734 60.9182 250.777 60.9182C251.318 60.9182 251.704 60.7251 251.936 60.3774V60.8409H252.747V58.9869ZM249.734 58.9869C249.734 58.3302 250.159 57.7895 250.854 57.7895C251.511 57.7895 251.975 58.2917 251.975 58.9869C251.975 59.6435 251.511 60.1843 250.854 60.1843C250.159 60.1455 249.734 59.6435 249.734 58.9869Z" fill="white"/>
<path d="M257.189 38.9055C257.189 34.4635 259.275 30.5236 262.48 27.9742C260.124 26.1201 257.15 25 253.906 25C246.219 25 240 31.2188 240 38.9055C240 46.5921 246.219 52.811 253.906 52.811C257.15 52.811 260.124 51.6909 262.48 49.8367C259.275 47.326 257.189 43.3475 257.189 38.9055Z" fill="#EB001B"/>
<path d="M285 38.9055C285 46.5921 278.781 52.811 271.094 52.811C267.849 52.811 264.875 51.6909 262.519 49.8367C265.764 47.2874 267.811 43.3475 267.811 38.9055C267.811 34.4635 265.725 30.5236 262.519 27.9742C264.875 26.1201 267.849 25 271.094 25C278.781 25 285 31.2575 285 38.9055H285Z" fill="#F79E1B"/>
<path d="M38.848 77.328C41.62 76.908 43.524 75.172 43.524 72.596C43.524 70.356 42.068 68.844 39.352 67.808L37.28 67.024C35.74 66.352 35.04 65.82 35.04 64.728C35.04 63.468 36.188 62.852 37.616 62.852C39.072 62.852 40.108 63.496 41.088 64.924L43.104 63.412C42.124 61.676 40.696 60.64 38.848 60.304V57.028H36.132V60.36C33.752 60.836 32.1 62.488 32.1 64.756C32.1 66.8 33.444 68.368 36.16 69.432L38.092 70.188C39.8 70.944 40.584 71.532 40.584 72.652C40.584 73.996 39.352 74.808 37.644 74.808C35.768 74.808 34.256 73.856 33.052 71.98L31.008 73.492C32.128 75.508 33.892 76.852 36.132 77.272V80.66H38.848V77.328ZM59.3191 72.036C59.3191 68.312 56.3231 66.268 53.0191 66.268C52.1791 66.268 51.3951 66.352 50.6671 66.52V62.18H58.2831V59.52H47.7551V68.816H52.0111C54.7271 68.816 56.2671 69.992 56.2671 72.092C56.2671 74.22 54.6431 75.592 52.4311 75.592C50.4431 75.592 49.0711 74.556 47.9511 72.848L45.8791 74.332C47.1391 76.712 49.4631 78.308 52.5151 78.308C56.1831 78.308 59.3191 75.76 59.3191 72.036ZM62.8357 82.984H65.2157L66.5317 75.032H63.1157L62.8357 82.984ZM69.2619 59.52V62.18H77.9419L69.7939 78H73.0139L81.9459 60.332V59.52H69.2619ZM96.8894 72.036C96.8894 68.312 93.8934 66.268 90.5894 66.268C89.7494 66.268 88.9654 66.352 88.2374 66.52V62.18H95.8534V59.52H85.3254V68.816H89.5814C92.2974 68.816 93.8374 69.992 93.8374 72.092C93.8374 74.22 92.2134 75.592 90.0014 75.592C88.0134 75.592 86.6414 74.556 85.5214 72.848L83.4494 74.332C84.7094 76.712 87.0334 78.308 90.0854 78.308C93.7534 78.308 96.8894 75.76 96.8894 72.036ZM99.958 68.592C99.958 74.052 102.282 78.308 107.014 78.308C111.774 78.308 114.042 74.052 114.042 68.592C114.042 65.764 113.454 63.496 112.25 61.788C111.074 60.08 109.338 59.212 107.014 59.212C104.69 59.212 102.954 60.08 101.75 61.816C100.546 63.524 99.958 65.792 99.958 68.592ZM110.962 68.62C110.962 72.988 109.73 75.592 107.014 75.592C104.298 75.592 103.038 72.988 103.038 68.62C103.038 64.168 104.354 61.928 107.014 61.928C109.646 61.928 110.962 64.168 110.962 68.62ZM117.633 82.984H120.013L121.329 75.032H117.913L117.633 82.984ZM130.044 75.424L133.292 71.98C134.58 70.608 135.56 69.432 136.204 68.396C136.876 67.36 137.212 66.212 137.212 64.952C137.212 61.704 134.608 59.212 131.08 59.212C127.3 59.212 124.864 62.096 124.864 65.12C124.864 65.68 124.92 66.212 125.06 66.716H128.056C127.972 66.156 127.916 65.68 127.916 65.288C127.916 63.384 129.176 61.928 131.052 61.928C132.928 61.928 134.132 63.3 134.132 65.176C134.132 66.744 133.236 68.088 131.192 70.244L124.612 77.328V78H137.856V75.424H130.044ZM141.056 68.592C141.056 74.052 143.38 78.308 148.112 78.308C152.872 78.308 155.14 74.052 155.14 68.592C155.14 65.764 154.552 63.496 153.348 61.788C152.172 60.08 150.436 59.212 148.112 59.212C145.788 59.212 144.052 60.08 142.848 61.816C141.644 63.524 141.056 65.792 141.056 68.592ZM152.06 68.62C152.06 72.988 150.828 75.592 148.112 75.592C145.396 75.592 144.136 72.988 144.136 68.62C144.136 64.168 145.452 61.928 148.112 61.928C150.744 61.928 152.06 64.168 152.06 68.62Z" fill="white"/>
<path opacity="0.54" d="M30.602 38.38C30.546 41.026 32.828 43.196 35.46 43.154C37.182 43.154 38.638 42.328 39.422 41.026L38.302 40.2C37.644 41.222 36.692 41.796 35.474 41.796C33.584 41.796 32.142 40.34 32.142 38.38C32.142 36.42 33.584 34.964 35.474 34.964C36.692 34.964 37.644 35.538 38.302 36.56L39.422 35.734C38.624 34.432 37.154 33.606 35.46 33.606C32.828 33.564 30.546 35.734 30.602 38.38ZM41.0292 40.116C41.0292 41.964 42.3172 43.154 44.0392 43.154C45.7192 43.154 47.0212 41.964 47.0212 40.116V36.126H45.5512V40.228C45.5512 41.18 44.8932 41.796 44.0392 41.796C43.1432 41.796 42.4852 41.18 42.4852 40.228V36.126H41.0292V40.116ZM53.0175 36.126C52.8495 36.084 52.6675 36.056 52.4575 36.056C51.6735 36.056 50.9455 36.406 50.4555 37.022V36.126H49.0835V43H50.5535V39.332C50.5535 38.114 51.4075 37.428 52.5695 37.428H53.0175V36.126ZM58.2675 36.126C58.0995 36.084 57.9175 36.056 57.7075 36.056C56.9235 36.056 56.1955 36.406 55.7055 37.022V36.126H54.3335V43H55.8035V39.332C55.8035 38.114 56.6575 37.428 57.8195 37.428H58.2675V36.126ZM65.6348 40.046C65.7048 39.724 65.7468 39.416 65.7468 39.122C65.7468 37.33 64.3888 35.972 62.5688 35.972C60.6228 35.93 58.9708 37.596 59.0128 39.57C59.0128 41.6 60.6088 43.154 62.7088 43.154C63.7588 43.154 64.6688 42.79 65.4528 42.048L64.7528 41.04C64.1368 41.586 63.4648 41.852 62.7508 41.852C61.5748 41.852 60.6928 41.166 60.5108 40.046H65.6348ZM60.5388 38.898C60.7628 37.876 61.5468 37.218 62.5128 37.218C63.4788 37.218 64.2628 37.848 64.2768 38.898H60.5388ZM73.4372 38.702C73.4372 37.064 72.4712 35.972 70.8612 35.972C70.0072 35.972 69.3212 36.252 68.8032 36.798V36.126H67.4312V43H68.9012V38.898C68.9012 37.96 69.5592 37.302 70.4692 37.302C71.3652 37.302 71.9672 37.946 71.9672 38.898V43H73.4372V38.702ZM79.5719 41.754C79.1659 41.796 78.8719 41.824 78.6619 41.824C77.7659 41.824 77.3039 41.516 77.3039 40.634V37.4H79.3479V36.126H77.3039V34.32H75.8199V36.126H74.6999V37.4H75.8199V40.76C75.8199 42.37 76.7719 43.154 78.3539 43.154C78.7039 43.154 79.1099 43.098 79.5719 43V41.754ZM92.0419 40.312C92.0419 39.178 91.3979 38.31 90.3199 37.96C90.8239 37.526 91.0899 36.938 91.0899 36.224C91.0899 34.796 89.9839 33.76 88.3179 33.76H85.0839V43H89.0459C90.8519 43 92.0419 41.866 92.0419 40.312ZM88.1779 35.062C89.0879 35.062 89.6059 35.524 89.6059 36.294C89.6059 37.064 89.0879 37.554 88.1779 37.554H86.5399V35.062H88.1779ZM90.5439 40.27C90.5439 41.152 89.9419 41.698 88.9199 41.698H86.5399V38.828H88.9199C89.9419 38.828 90.5439 39.388 90.5439 40.27ZM99.1002 38.842C99.1002 36.994 97.9802 35.972 96.2862 35.972C95.0962 35.972 94.0742 36.448 93.3882 37.442L94.2422 38.31C94.8162 37.624 95.3762 37.288 96.1462 37.288C97.0842 37.288 97.6162 37.806 97.6162 38.758V39.206H95.6702C94.1162 39.206 93.1362 39.976 93.1362 41.166C93.1362 42.356 94.0882 43.154 95.5302 43.154C96.4682 43.154 97.2242 42.832 97.7282 42.23V43H99.1002V38.842ZM97.6162 40.396C97.6162 41.334 96.8322 42.02 95.8382 42.02C95.1242 42.02 94.6342 41.684 94.6342 41.11C94.6342 40.55 95.0682 40.27 95.8522 40.27H97.6162V40.396ZM101.146 43H102.616V32.5H101.146V43ZM110.202 38.842C110.202 36.994 109.082 35.972 107.388 35.972C106.198 35.972 105.176 36.448 104.49 37.442L105.344 38.31C105.918 37.624 106.478 37.288 107.248 37.288C108.186 37.288 108.718 37.806 108.718 38.758V39.206H106.772C105.218 39.206 104.238 39.976 104.238 41.166C104.238 42.356 105.19 43.154 106.632 43.154C107.57 43.154 108.326 42.832 108.83 42.23V43H110.202V38.842ZM108.718 40.396C108.718 41.334 107.934 42.02 106.94 42.02C106.226 42.02 105.736 41.684 105.736 41.11C105.736 40.55 106.17 40.27 106.954 40.27H108.718V40.396ZM118.254 38.702C118.254 37.064 117.288 35.972 115.678 35.972C114.824 35.972 114.138 36.252 113.62 36.798V36.126H112.248V43H113.718V38.898C113.718 37.96 114.376 37.302 115.286 37.302C116.182 37.302 116.784 37.946 116.784 38.898V43H118.254V38.702ZM119.866 39.556C119.866 41.558 121.476 43.154 123.506 43.154C124.752 43.154 125.788 42.552 126.404 41.558L125.368 40.76C124.864 41.446 124.248 41.796 123.52 41.796C122.288 41.796 121.364 40.816 121.364 39.556C121.364 38.31 122.288 37.33 123.52 37.33C124.262 37.33 124.878 37.68 125.368 38.38L126.404 37.568C125.802 36.574 124.78 35.972 123.506 35.972C121.532 35.944 119.824 37.582 119.866 39.556ZM134.076 40.046C134.146 39.724 134.188 39.416 134.188 39.122C134.188 37.33 132.83 35.972 131.01 35.972C129.064 35.93 127.412 37.596 127.454 39.57C127.454 41.6 129.05 43.154 131.15 43.154C132.2 43.154 133.11 42.79 133.894 42.048L133.194 41.04C132.578 41.586 131.906 41.852 131.192 41.852C130.016 41.852 129.134 41.166 128.952 40.046H134.076ZM128.98 38.898C129.204 37.876 129.988 37.218 130.954 37.218C131.92 37.218 132.704 37.848 132.718 38.898H128.98Z" fill="white"/>
<defs>
<linearGradient id="paint0_linear_0_1" x1="240.397" y1="194.947" x2="273.512" y2="452.882" gradientUnits="userSpaceOnUse">
<stop stop-color="#E42C66"/>
<stop offset="1" stop-color="#F55B46"/>
</linearGradient>
<linearGradient id="paint1_linear_0_1" x1="25.5" y1="194.947" x2="93.3475" y2="438.211" gradientUnits="userSpaceOnUse">
<stop stop-color="#E42C66"/>
<stop offset="1" stop-color="#F55B46"/>
</linearGradient>
<radialGradient id="paint2_radial_0_1" cx="0" cy="0" r="1" gradientUnits="userSpaceOnUse" gradientTransform="translate(35.9503 369.014) rotate(141.302) scale(22.37 22.2003)">
<stop stop-color="white"/>
<stop offset="1" stop-color="#DDDCDA"/>
</radialGradient>
<linearGradient id="paint3_linear_0_1" x1="428" y1="-30.5053" x2="442.54" y2="206.333" gradientUnits="userSpaceOnUse">
<stop stop-color="#9C2CF3"/>
<stop offset="1" stop-color="#3A49F9"/>
</linearGradient>
<radialGradient id="paint4_radial_0_1" cx="0" cy="0" r="1" gradientUnits="userSpaceOnUse" gradientTransform="translate(390.95 145.014) rotate(141.302) scale(22.37 22.2003)">
<stop stop-color="white"/>
<stop offset="1" stop-color="#DDDCDA"/>
</radialGradient>
<linearGradient id="paint5_linear_0_1" x1="158.586" y1="-30.5053" x2="165.299" y2="207.036" gradientUnits="userSpaceOnUse">
<stop stop-color="#9C2CF3"/>
<stop offset="1" stop-color="#3A49F9"/>
</linearGradient>
</defs>
</svg>
